 http://www.shotpix.com/images/86581293467262371627.jpg

General
Complete name                            : Wiz Khalifa - Mezmorized (Official Music Video).MP4
Format                                   : MPEG-4
Format profile                           : Base Media / Version 2
Codec ID                                 : mp42
File size                                : 55.9 MiB
Duration                                 : 3mn 44s
Overall bit rate mode                    : Variable
Overall bit rate                         : 2 088 Kbps
Encoded date                             : UTC 2010-06-09 01:18:03
Tagged date                              : UTC 2010-06-09 01:18:03

Video
ID                                       : 2
Format                                   : AVC
Format/Info                              : Advanced Video Codec
Format profile                           : High@L3.1
Format settings, CABAC                   : Yes
Format settings, ReFrames                : 1 frame
Codec ID                                 : avc1
Codec ID/Info                            : Advanced Video Coding
Duration                                 : 3mn 44s
Bit rate                                 : 1 960 Kbps
Maximum bit rate                         : 3 177 Kbps
Width                                    : 1 280 pixels
Height                                   : 544 pixels
Display aspect ratio                     : 2.35:1
Frame rate mode                          : Constant
Frame rate                               : 24.000 fps
Color space                              : YUV
Chroma subsampling                       : 4:2:0
Bit depth                                : 8 bits
Scan type                                : Progressive
Bits/(Pixel*Frame)                       : 0.117
Stream size                              : 52.5 MiB (94%)
Title                                    : (C) 2007 Google Inc. v08.13.2007.
Encoded date                             : UTC 2010-06-09 01:18:03
Tagged date                              : UTC 2010-06-09 01:18:04

Audio
ID                                       : 1
Format                                   : AAC
Format/Info                              : Advanced Audio Codec
Format profile                           : LC
Codec ID                                 : 40
Duration                                 : 3mn 44s
Bit rate mode                            : Variable
Bit rate                                 : 125 Kbps
Maximum bit rate                         : 142 Kbps
Channel(s)                               : 2 channels
Channel positions                        : Front: L R
Sampling rate                            : 44.1 KHz
Compression mode                         : Lossy
Stream size                              : 3.36 MiB (6%)
Title                                    : (C) 2007 Google Inc. v08.13.2007.
Encoded date                             : UTC 2010-06-09 01:18:03
Tagged date                              : UTC 2010-06-09 01:18:04
 
http://www.shotpix.com/images/34194533207175602468.gif